<?xml version="1.0" encoding="utf-8"?>
<!-- Generator: Adobe Illustrator 22.0.1, SVG Export Plug-In . SVG Version: 6.00 Build 0)  -->
<svg version="1.1" id="Layer_1" xmlns="http://www.w3.org/2000/svg" xmlns:xlink="http://www.w3.org/1999/xlink" x="0px" y="0px"
	 viewBox="0 0 513.8 645" style="enable-background:new 0 0 513.8 645;" xml:space="preserve">
<style type="text/css">
	.st0{fill:#FFFFFF;}
	.st1{fill:#E5E5E5;}
	.st2{fill:#FFB7B7;}
	.st3{fill:#262626;}
	.st4{fill:#FFB8B8;}
	.st5{fill:#404040;}
</style>
<path class="st0" d="M124.3,137.4H2.5V29h121.8V137.4z"/>
<path class="st1" d="M126.8,139.9H0V26.5h126.8V139.9z M5,134.9h116.8V31.5H5V134.9z"/>
<polygon class="st2" points="147.8,586.1 135.5,586.1 129.7,538.8 147.8,538.8 "/>
<path class="st3" d="M150.9,598l-39.5,0v-0.5c0-8.5,6.9-15.4,15.4-15.4h0l24.1,0L150.9,598z"/>
<polygon class="st2" points="262.2,578.5 250.2,581.2 234.3,536.2 252,532.4 "/>
<path class="st3" d="M267.8,589.5l-38.6,8.5l-0.1-0.5c-1.8-8.3,3.4-16.5,11.7-18.3l0,0l23.6-5.2L267.8,589.5z"/>
<path d="M113.3,420L52.8,433c-11.6-21.9-14.2-44.8-14.3-66.4L99,353.6C98.1,376.6,103,399.4,113.3,420z"/>
<polygon class="st0" points="52.3,378.8 51.8,376.5 83.2,370.1 83.8,372.4 "/>
<polygon class="st0" points="54.3,388 53.8,385.7 85.3,379.3 85.8,381.6 "/>
<polygon class="st0" points="56.4,397.2 55.9,394.9 87.4,388.5 87.9,390.8 "/>
<polygon class="st0" points="58.5,406.4 58,404.1 89.4,397.7 89.9,400 "/>
<polygon class="st0" points="60.5,415.5 60,413.3 91.5,406.9 92,409.2 "/>
<path class="st2" d="M251.4,366.3c3.6-5.3,2.1-12.6-3.2-16.1c-0.6-0.4-1.2-0.7-1.8-1l0.5-26.6l-16.1-4.3l-0.2,37.5
	c-2.2,6.1,0.9,12.8,7,15C242.8,372.7,248.4,370.8,251.4,366.3L251.4,366.3z"/>
<path d="M97.2,119.4L35.2,118c-6.2-24-3.4-46.8,1.5-67.9l61.9,1.4C92.4,73.6,91.9,97,97.2,119.4z"/>
<polygon class="st0" points="47.4,65.1 47.4,62.7 79.5,63.9 79.5,66.2 "/>
<polygon class="st0" points="47.2,74.5 47.3,72.1 79.4,73.3 79.3,75.6 "/>
<polygon class="st0" points="47.1,83.9 47.1,81.6 79.2,82.7 79.2,85.1 "/>
<polygon class="st0" points="47,93.3 47,91 79.1,92.1 79,94.5 "/>
<polygon class="st0" points="46.8,102.8 46.9,100.4 78.9,101.6 78.9,103.9 "/>
<circle cx="126.7" cy="22.5" r="22.5"/>
<polygon class="st0" points="125.9,33.4 117.4,23 118.7,21.9 125.8,30.5 138.1,12.5 139.5,13.4 "/>
<path class="st0" d="M511.3,328.4H389.5V220h121.8V328.4z"/>
<path class="st1" d="M513.8,330.9H387V217.5h126.8V330.9z M392,325.9h116.8V222.5H392V325.9z"/>
<path class="st0" d="M511.3,137.4H389.5V29h121.8V137.4z"/>
<path class="st1" d="M513.8,139.9H387V26.5h126.8V139.9z M392,134.9h116.8V31.5H392V134.9z"/>
<path class="st0" d="M317.3,328.4H195.5V220h121.8V328.4z"/>
<path class="st1" d="M319.8,330.9H193V217.5h126.8V330.9z M198,325.9h116.8V222.5H198V325.9z"/>
<path class="st0" d="M124.3,328.4H2.5V220h121.8V328.4z"/>
<path class="st1" d="M126.8,330.9H0V217.5h126.8V330.9z M5,325.9h116.8V222.5H5V325.9z"/>
<path class="st0" d="M317.3,137.4H195.5V29h121.8V137.4z"/>
<path class="st1" d="M319.8,139.9H193V26.5h126.8V139.9z M198,134.9h116.8V31.5H198V134.9z"/>
<path class="st1" d="M300.4,641.8l16.3-31.5c30,4.9,35.3,3.9,61.6,0.5l7,34.2C357.2,640.7,328.7,639.6,300.4,641.8z"/>
<polygon class="st0" points="368.3,636.1 367.8,618.3 369.7,618.4 370.2,636.1 "/>
<polygon class="st0" points="360.8,635.8 360.3,618.1 362.2,618.1 362.7,635.9 "/>
<polygon class="st0" points="353.4,635.5 352.9,617.8 354.7,617.8 355.3,635.6 "/>
<path class="st3" d="M125.3,324.5c0,0-5.9,2.4,0,92.2l2.4,146.6h23.6l26.6-199.2l32.5,92.8L240,566.8l23.6-5.9
	c0,0-24.8-222.2-46.1-236.4S125.3,324.5,125.3,324.5z"/>
<circle class="st4" cx="172.8" cy="117.9" r="24.6"/>
<path class="st5" d="M196.2,157.8c0,0-21.3-10.6-41.4-3.5s-30.7,15.4-30.7,15.4l13,68.6l-17.7,92.2c0,0,91-7.1,99.3,0
	s8.3-8.3,8.3-8.3l-7.1-87.5l13-55.6L196.2,157.8z"/>
<path class="st3" d="M151.9,116.2l5.2,13.3c2.1,5.4,4.6,11.3,9.6,14.3c6.2,3.8,14.4,1.9,20.4-2.1c14.5-9.9,18.3-29.7,8.4-44.2
	c-5.2-7.7-13.5-12.7-22.7-13.7l-0.2,4.4l-5.5-4.6c-1.5,2.5-4.7,3.4-7.3,1.9c-0.4-0.2-0.7-0.5-1-0.7c1.4,3-0.2,6.6-2.6,8.9
	c-2.9,2.8-11.3,6.2-11,11.2C145.4,108.2,150.5,112.8,151.9,116.2z"/>
<path class="st2" d="M106.4,367.9c4.9-4.1,5.6-11.4,1.5-16.4c-0.4-0.5-0.9-1-1.4-1.5l8-25.3l-14.2-8.6L89.4,352
	c-3.8,5.2-2.7,12.5,2.5,16.3C96.3,371.6,102.3,371.4,106.4,367.9L106.4,367.9z"/>
<path class="st5" d="M132.4,169.6h-8.3c0,0-13,8.3-13,20.1S92.2,339.8,92.2,339.8l20.1,3.5l17.7-96.9l13-26L132.4,169.6z"/>
<path class="st5" d="M210.4,179.1h22.5c0,0,7.1,7.1,10.6,23.6s7.1,81.6,7.1,81.6l-2.4,59.1h-17.7l-2.4-76.8l-11.8-49.6L210.4,179.1z
	"/>
<path class="st1" d="M383.9,599.1H2.9c-0.6,0-1-0.4-1-1s0.4-1,1-1h381c0.6,0,1,0.4,1,1S384.4,599.1,383.9,599.1z"/>
</svg>
